%TF.GenerationSoftware,KiCad,Pcbnew,9.0.7*%
%TF.CreationDate,2026-02-14T21:36:02-07:00*%
%TF.ProjectId,motor-driver,6d6f746f-722d-4647-9269-7665722e6b69,1*%
%TF.SameCoordinates,Original*%
%TF.FileFunction,Paste,Bot*%
%TF.FilePolarity,Positive*%
%FSLAX46Y46*%
G04 Gerber Fmt 4.6, Leading zero omitted, Abs format (unit mm)*
G04 Created by KiCad (PCBNEW 9.0.7) date 2026-02-14 21:36:02*
%MOMM*%
%LPD*%
G01*
G04 APERTURE LIST*
%ADD10C,0.100000*%
%ADD11C,0.150000*%
%ADD12C,0.300000*%
%ADD13C,0.400000*%
G04 APERTURE END LIST*
D10*
D11*
X90007200Y-104005800D02*
X198007200Y-104005800D01*
X198007200Y-136005800D01*
X90007200Y-136005800D01*
X90007200Y-104005800D01*
D10*
D11*
X10000000Y-10000000D02*
X200007200Y-10000000D01*
X200007200Y-138005800D01*
X10000000Y-138005800D01*
X10000000Y-10000000D01*
D10*
D11*
X12000000Y-12000000D02*
X198007200Y-12000000D01*
X198007200Y-136005800D01*
X12000000Y-136005800D01*
X12000000Y-12000000D01*
D10*
D11*
X60000000Y-12000000D02*
X60000000Y-10000000D01*
D10*
D11*
X110000000Y-12000000D02*
X110000000Y-10000000D01*
D10*
D11*
X160000000Y-12000000D02*
X160000000Y-10000000D01*
D10*
D11*
X36089160Y-11593604D02*
X35346303Y-11593604D01*
X35717731Y-11593604D02*
X35717731Y-10293604D01*
X35717731Y-10293604D02*
X35593922Y-10479319D01*
X35593922Y-10479319D02*
X35470112Y-10603128D01*
X35470112Y-10603128D02*
X35346303Y-10665033D01*
D10*
D11*
X85346303Y-10417414D02*
X85408207Y-10355509D01*
X85408207Y-10355509D02*
X85532017Y-10293604D01*
X85532017Y-10293604D02*
X85841541Y-10293604D01*
X85841541Y-10293604D02*
X85965350Y-10355509D01*
X85965350Y-10355509D02*
X86027255Y-10417414D01*
X86027255Y-10417414D02*
X86089160Y-10541223D01*
X86089160Y-10541223D02*
X86089160Y-10665033D01*
X86089160Y-10665033D02*
X86027255Y-10850747D01*
X86027255Y-10850747D02*
X85284398Y-11593604D01*
X85284398Y-11593604D02*
X86089160Y-11593604D01*
D10*
D11*
X135284398Y-10293604D02*
X136089160Y-10293604D01*
X136089160Y-10293604D02*
X135655826Y-10788842D01*
X135655826Y-10788842D02*
X135841541Y-10788842D01*
X135841541Y-10788842D02*
X135965350Y-10850747D01*
X135965350Y-10850747D02*
X136027255Y-10912652D01*
X136027255Y-10912652D02*
X136089160Y-11036461D01*
X136089160Y-11036461D02*
X136089160Y-11345985D01*
X136089160Y-11345985D02*
X136027255Y-11469795D01*
X136027255Y-11469795D02*
X135965350Y-11531700D01*
X135965350Y-11531700D02*
X135841541Y-11593604D01*
X135841541Y-11593604D02*
X135470112Y-11593604D01*
X135470112Y-11593604D02*
X135346303Y-11531700D01*
X135346303Y-11531700D02*
X135284398Y-11469795D01*
D10*
D11*
X185965350Y-10726938D02*
X185965350Y-11593604D01*
X185655826Y-10231700D02*
X185346303Y-11160271D01*
X185346303Y-11160271D02*
X186151064Y-11160271D01*
D10*
D11*
X60000000Y-136005800D02*
X60000000Y-138005800D01*
D10*
D11*
X110000000Y-136005800D02*
X110000000Y-138005800D01*
D10*
D11*
X160000000Y-136005800D02*
X160000000Y-138005800D01*
D10*
D11*
X36089160Y-137599404D02*
X35346303Y-137599404D01*
X35717731Y-137599404D02*
X35717731Y-136299404D01*
X35717731Y-136299404D02*
X35593922Y-136485119D01*
X35593922Y-136485119D02*
X35470112Y-136608928D01*
X35470112Y-136608928D02*
X35346303Y-136670833D01*
D10*
D11*
X85346303Y-136423214D02*
X85408207Y-136361309D01*
X85408207Y-136361309D02*
X85532017Y-136299404D01*
X85532017Y-136299404D02*
X85841541Y-136299404D01*
X85841541Y-136299404D02*
X85965350Y-136361309D01*
X85965350Y-136361309D02*
X86027255Y-136423214D01*
X86027255Y-136423214D02*
X86089160Y-136547023D01*
X86089160Y-136547023D02*
X86089160Y-136670833D01*
X86089160Y-136670833D02*
X86027255Y-136856547D01*
X86027255Y-136856547D02*
X85284398Y-137599404D01*
X85284398Y-137599404D02*
X86089160Y-137599404D01*
D10*
D11*
X135284398Y-136299404D02*
X136089160Y-136299404D01*
X136089160Y-136299404D02*
X135655826Y-136794642D01*
X135655826Y-136794642D02*
X135841541Y-136794642D01*
X135841541Y-136794642D02*
X135965350Y-136856547D01*
X135965350Y-136856547D02*
X136027255Y-136918452D01*
X136027255Y-136918452D02*
X136089160Y-137042261D01*
X136089160Y-137042261D02*
X136089160Y-137351785D01*
X136089160Y-137351785D02*
X136027255Y-137475595D01*
X136027255Y-137475595D02*
X135965350Y-137537500D01*
X135965350Y-137537500D02*
X135841541Y-137599404D01*
X135841541Y-137599404D02*
X135470112Y-137599404D01*
X135470112Y-137599404D02*
X135346303Y-137537500D01*
X135346303Y-137537500D02*
X135284398Y-137475595D01*
D10*
D11*
X185965350Y-136732738D02*
X185965350Y-137599404D01*
X185655826Y-136237500D02*
X185346303Y-137166071D01*
X185346303Y-137166071D02*
X186151064Y-137166071D01*
D10*
D11*
X10000000Y-60000000D02*
X12000000Y-60000000D01*
D10*
D11*
X10000000Y-110000000D02*
X12000000Y-110000000D01*
D10*
D11*
X10690476Y-35222176D02*
X11309523Y-35222176D01*
X10566666Y-35593604D02*
X10999999Y-34293604D01*
X10999999Y-34293604D02*
X11433333Y-35593604D01*
D10*
D11*
X11092857Y-84912652D02*
X11278571Y-84974557D01*
X11278571Y-84974557D02*
X11340476Y-85036461D01*
X11340476Y-85036461D02*
X11402380Y-85160271D01*
X11402380Y-85160271D02*
X11402380Y-85345985D01*
X11402380Y-85345985D02*
X11340476Y-85469795D01*
X11340476Y-85469795D02*
X11278571Y-85531700D01*
X11278571Y-85531700D02*
X11154761Y-85593604D01*
X11154761Y-85593604D02*
X10659523Y-85593604D01*
X10659523Y-85593604D02*
X10659523Y-84293604D01*
X10659523Y-84293604D02*
X11092857Y-84293604D01*
X11092857Y-84293604D02*
X11216666Y-84355509D01*
X11216666Y-84355509D02*
X11278571Y-84417414D01*
X11278571Y-84417414D02*
X11340476Y-84541223D01*
X11340476Y-84541223D02*
X11340476Y-84665033D01*
X11340476Y-84665033D02*
X11278571Y-84788842D01*
X11278571Y-84788842D02*
X11216666Y-84850747D01*
X11216666Y-84850747D02*
X11092857Y-84912652D01*
X11092857Y-84912652D02*
X10659523Y-84912652D01*
D10*
D11*
X11402380Y-135469795D02*
X11340476Y-135531700D01*
X11340476Y-135531700D02*
X11154761Y-135593604D01*
X11154761Y-135593604D02*
X11030952Y-135593604D01*
X11030952Y-135593604D02*
X10845238Y-135531700D01*
X10845238Y-135531700D02*
X10721428Y-135407890D01*
X10721428Y-135407890D02*
X10659523Y-135284080D01*
X10659523Y-135284080D02*
X10597619Y-135036461D01*
X10597619Y-135036461D02*
X10597619Y-134850747D01*
X10597619Y-134850747D02*
X10659523Y-134603128D01*
X10659523Y-134603128D02*
X10721428Y-134479319D01*
X10721428Y-134479319D02*
X10845238Y-134355509D01*
X10845238Y-134355509D02*
X11030952Y-134293604D01*
X11030952Y-134293604D02*
X11154761Y-134293604D01*
X11154761Y-134293604D02*
X11340476Y-134355509D01*
X11340476Y-134355509D02*
X11402380Y-134417414D01*
D10*
D11*
X200007200Y-60000000D02*
X198007200Y-60000000D01*
D10*
D11*
X200007200Y-110000000D02*
X198007200Y-110000000D01*
D10*
D11*
X198697676Y-35222176D02*
X199316723Y-35222176D01*
X198573866Y-35593604D02*
X199007199Y-34293604D01*
X199007199Y-34293604D02*
X199440533Y-35593604D01*
D10*
D11*
X199100057Y-84912652D02*
X199285771Y-84974557D01*
X199285771Y-84974557D02*
X199347676Y-85036461D01*
X199347676Y-85036461D02*
X199409580Y-85160271D01*
X199409580Y-85160271D02*
X199409580Y-85345985D01*
X199409580Y-85345985D02*
X199347676Y-85469795D01*
X199347676Y-85469795D02*
X199285771Y-85531700D01*
X199285771Y-85531700D02*
X199161961Y-85593604D01*
X199161961Y-85593604D02*
X198666723Y-85593604D01*
X198666723Y-85593604D02*
X198666723Y-84293604D01*
X198666723Y-84293604D02*
X199100057Y-84293604D01*
X199100057Y-84293604D02*
X199223866Y-84355509D01*
X199223866Y-84355509D02*
X199285771Y-84417414D01*
X199285771Y-84417414D02*
X199347676Y-84541223D01*
X199347676Y-84541223D02*
X199347676Y-84665033D01*
X199347676Y-84665033D02*
X199285771Y-84788842D01*
X199285771Y-84788842D02*
X199223866Y-84850747D01*
X199223866Y-84850747D02*
X199100057Y-84912652D01*
X199100057Y-84912652D02*
X198666723Y-84912652D01*
D10*
D11*
X199409580Y-135469795D02*
X199347676Y-135531700D01*
X199347676Y-135531700D02*
X199161961Y-135593604D01*
X199161961Y-135593604D02*
X199038152Y-135593604D01*
X199038152Y-135593604D02*
X198852438Y-135531700D01*
X198852438Y-135531700D02*
X198728628Y-135407890D01*
X198728628Y-135407890D02*
X198666723Y-135284080D01*
X198666723Y-135284080D02*
X198604819Y-135036461D01*
X198604819Y-135036461D02*
X198604819Y-134850747D01*
X198604819Y-134850747D02*
X198666723Y-134603128D01*
X198666723Y-134603128D02*
X198728628Y-134479319D01*
X198728628Y-134479319D02*
X198852438Y-134355509D01*
X198852438Y-134355509D02*
X199038152Y-134293604D01*
X199038152Y-134293604D02*
X199161961Y-134293604D01*
X199161961Y-134293604D02*
X199347676Y-134355509D01*
X199347676Y-134355509D02*
X199409580Y-134417414D01*
D10*
D11*
X113463026Y-131791928D02*
X113463026Y-130291928D01*
X113463026Y-130291928D02*
X113820169Y-130291928D01*
X113820169Y-130291928D02*
X114034455Y-130363357D01*
X114034455Y-130363357D02*
X114177312Y-130506214D01*
X114177312Y-130506214D02*
X114248741Y-130649071D01*
X114248741Y-130649071D02*
X114320169Y-130934785D01*
X114320169Y-130934785D02*
X114320169Y-131149071D01*
X114320169Y-131149071D02*
X114248741Y-131434785D01*
X114248741Y-131434785D02*
X114177312Y-131577642D01*
X114177312Y-131577642D02*
X114034455Y-131720500D01*
X114034455Y-131720500D02*
X113820169Y-131791928D01*
X113820169Y-131791928D02*
X113463026Y-131791928D01*
X115605884Y-131791928D02*
X115605884Y-131006214D01*
X115605884Y-131006214D02*
X115534455Y-130863357D01*
X115534455Y-130863357D02*
X115391598Y-130791928D01*
X115391598Y-130791928D02*
X115105884Y-130791928D01*
X115105884Y-130791928D02*
X114963026Y-130863357D01*
X115605884Y-131720500D02*
X115463026Y-131791928D01*
X115463026Y-131791928D02*
X115105884Y-131791928D01*
X115105884Y-131791928D02*
X114963026Y-131720500D01*
X114963026Y-131720500D02*
X114891598Y-131577642D01*
X114891598Y-131577642D02*
X114891598Y-131434785D01*
X114891598Y-131434785D02*
X114963026Y-131291928D01*
X114963026Y-131291928D02*
X115105884Y-131220500D01*
X115105884Y-131220500D02*
X115463026Y-131220500D01*
X115463026Y-131220500D02*
X115605884Y-131149071D01*
X116105884Y-130791928D02*
X116677312Y-130791928D01*
X116320169Y-130291928D02*
X116320169Y-131577642D01*
X116320169Y-131577642D02*
X116391598Y-131720500D01*
X116391598Y-131720500D02*
X116534455Y-131791928D01*
X116534455Y-131791928D02*
X116677312Y-131791928D01*
X117748741Y-131720500D02*
X117605884Y-131791928D01*
X117605884Y-131791928D02*
X117320170Y-131791928D01*
X117320170Y-131791928D02*
X117177312Y-131720500D01*
X117177312Y-131720500D02*
X117105884Y-131577642D01*
X117105884Y-131577642D02*
X117105884Y-131006214D01*
X117105884Y-131006214D02*
X117177312Y-130863357D01*
X117177312Y-130863357D02*
X117320170Y-130791928D01*
X117320170Y-130791928D02*
X117605884Y-130791928D01*
X117605884Y-130791928D02*
X117748741Y-130863357D01*
X117748741Y-130863357D02*
X117820170Y-131006214D01*
X117820170Y-131006214D02*
X117820170Y-131149071D01*
X117820170Y-131149071D02*
X117105884Y-131291928D01*
X118463026Y-131649071D02*
X118534455Y-131720500D01*
X118534455Y-131720500D02*
X118463026Y-131791928D01*
X118463026Y-131791928D02*
X118391598Y-131720500D01*
X118391598Y-131720500D02*
X118463026Y-131649071D01*
X118463026Y-131649071D02*
X118463026Y-131791928D01*
X118463026Y-130863357D02*
X118534455Y-130934785D01*
X118534455Y-130934785D02*
X118463026Y-131006214D01*
X118463026Y-131006214D02*
X118391598Y-130934785D01*
X118391598Y-130934785D02*
X118463026Y-130863357D01*
X118463026Y-130863357D02*
X118463026Y-131006214D01*
X120248741Y-130434785D02*
X120320169Y-130363357D01*
X120320169Y-130363357D02*
X120463027Y-130291928D01*
X120463027Y-130291928D02*
X120820169Y-130291928D01*
X120820169Y-130291928D02*
X120963027Y-130363357D01*
X120963027Y-130363357D02*
X121034455Y-130434785D01*
X121034455Y-130434785D02*
X121105884Y-130577642D01*
X121105884Y-130577642D02*
X121105884Y-130720500D01*
X121105884Y-130720500D02*
X121034455Y-130934785D01*
X121034455Y-130934785D02*
X120177312Y-131791928D01*
X120177312Y-131791928D02*
X121105884Y-131791928D01*
X122034455Y-130291928D02*
X122177312Y-130291928D01*
X122177312Y-130291928D02*
X122320169Y-130363357D01*
X122320169Y-130363357D02*
X122391598Y-130434785D01*
X122391598Y-130434785D02*
X122463026Y-130577642D01*
X122463026Y-130577642D02*
X122534455Y-130863357D01*
X122534455Y-130863357D02*
X122534455Y-131220500D01*
X122534455Y-131220500D02*
X122463026Y-131506214D01*
X122463026Y-131506214D02*
X122391598Y-131649071D01*
X122391598Y-131649071D02*
X122320169Y-131720500D01*
X122320169Y-131720500D02*
X122177312Y-131791928D01*
X122177312Y-131791928D02*
X122034455Y-131791928D01*
X122034455Y-131791928D02*
X121891598Y-131720500D01*
X121891598Y-131720500D02*
X121820169Y-131649071D01*
X121820169Y-131649071D02*
X121748740Y-131506214D01*
X121748740Y-131506214D02*
X121677312Y-131220500D01*
X121677312Y-131220500D02*
X121677312Y-130863357D01*
X121677312Y-130863357D02*
X121748740Y-130577642D01*
X121748740Y-130577642D02*
X121820169Y-130434785D01*
X121820169Y-130434785D02*
X121891598Y-130363357D01*
X121891598Y-130363357D02*
X122034455Y-130291928D01*
X123105883Y-130434785D02*
X123177311Y-130363357D01*
X123177311Y-130363357D02*
X123320169Y-130291928D01*
X123320169Y-130291928D02*
X123677311Y-130291928D01*
X123677311Y-130291928D02*
X123820169Y-130363357D01*
X123820169Y-130363357D02*
X123891597Y-130434785D01*
X123891597Y-130434785D02*
X123963026Y-130577642D01*
X123963026Y-130577642D02*
X123963026Y-130720500D01*
X123963026Y-130720500D02*
X123891597Y-130934785D01*
X123891597Y-130934785D02*
X123034454Y-131791928D01*
X123034454Y-131791928D02*
X123963026Y-131791928D01*
X125248740Y-130291928D02*
X124963025Y-130291928D01*
X124963025Y-130291928D02*
X124820168Y-130363357D01*
X124820168Y-130363357D02*
X124748740Y-130434785D01*
X124748740Y-130434785D02*
X124605882Y-130649071D01*
X124605882Y-130649071D02*
X124534454Y-130934785D01*
X124534454Y-130934785D02*
X124534454Y-131506214D01*
X124534454Y-131506214D02*
X124605882Y-131649071D01*
X124605882Y-131649071D02*
X124677311Y-131720500D01*
X124677311Y-131720500D02*
X124820168Y-131791928D01*
X124820168Y-131791928D02*
X125105882Y-131791928D01*
X125105882Y-131791928D02*
X125248740Y-131720500D01*
X125248740Y-131720500D02*
X125320168Y-131649071D01*
X125320168Y-131649071D02*
X125391597Y-131506214D01*
X125391597Y-131506214D02*
X125391597Y-131149071D01*
X125391597Y-131149071D02*
X125320168Y-131006214D01*
X125320168Y-131006214D02*
X125248740Y-130934785D01*
X125248740Y-130934785D02*
X125105882Y-130863357D01*
X125105882Y-130863357D02*
X124820168Y-130863357D01*
X124820168Y-130863357D02*
X124677311Y-130934785D01*
X124677311Y-130934785D02*
X124605882Y-131006214D01*
X124605882Y-131006214D02*
X124534454Y-131149071D01*
X126034453Y-131220500D02*
X127177311Y-131220500D01*
X128177311Y-130291928D02*
X128320168Y-130291928D01*
X128320168Y-130291928D02*
X128463025Y-130363357D01*
X128463025Y-130363357D02*
X128534454Y-130434785D01*
X128534454Y-130434785D02*
X128605882Y-130577642D01*
X128605882Y-130577642D02*
X128677311Y-130863357D01*
X128677311Y-130863357D02*
X128677311Y-131220500D01*
X128677311Y-131220500D02*
X128605882Y-131506214D01*
X128605882Y-131506214D02*
X128534454Y-131649071D01*
X128534454Y-131649071D02*
X128463025Y-131720500D01*
X128463025Y-131720500D02*
X128320168Y-131791928D01*
X128320168Y-131791928D02*
X128177311Y-131791928D01*
X128177311Y-131791928D02*
X128034454Y-131720500D01*
X128034454Y-131720500D02*
X127963025Y-131649071D01*
X127963025Y-131649071D02*
X127891596Y-131506214D01*
X127891596Y-131506214D02*
X127820168Y-131220500D01*
X127820168Y-131220500D02*
X127820168Y-130863357D01*
X127820168Y-130863357D02*
X127891596Y-130577642D01*
X127891596Y-130577642D02*
X127963025Y-130434785D01*
X127963025Y-130434785D02*
X128034454Y-130363357D01*
X128034454Y-130363357D02*
X128177311Y-130291928D01*
X130105882Y-131791928D02*
X129248739Y-131791928D01*
X129677310Y-131791928D02*
X129677310Y-130291928D01*
X129677310Y-130291928D02*
X129534453Y-130506214D01*
X129534453Y-130506214D02*
X129391596Y-130649071D01*
X129391596Y-130649071D02*
X129248739Y-130720500D01*
X130748738Y-131220500D02*
X131891596Y-131220500D01*
X132534453Y-130434785D02*
X132605881Y-130363357D01*
X132605881Y-130363357D02*
X132748739Y-130291928D01*
X132748739Y-130291928D02*
X133105881Y-130291928D01*
X133105881Y-130291928D02*
X133248739Y-130363357D01*
X133248739Y-130363357D02*
X133320167Y-130434785D01*
X133320167Y-130434785D02*
X133391596Y-130577642D01*
X133391596Y-130577642D02*
X133391596Y-130720500D01*
X133391596Y-130720500D02*
X133320167Y-130934785D01*
X133320167Y-130934785D02*
X132463024Y-131791928D01*
X132463024Y-131791928D02*
X133391596Y-131791928D01*
X134748738Y-130291928D02*
X134034452Y-130291928D01*
X134034452Y-130291928D02*
X133963024Y-131006214D01*
X133963024Y-131006214D02*
X134034452Y-130934785D01*
X134034452Y-130934785D02*
X134177310Y-130863357D01*
X134177310Y-130863357D02*
X134534452Y-130863357D01*
X134534452Y-130863357D02*
X134677310Y-130934785D01*
X134677310Y-130934785D02*
X134748738Y-131006214D01*
X134748738Y-131006214D02*
X134820167Y-131149071D01*
X134820167Y-131149071D02*
X134820167Y-131506214D01*
X134820167Y-131506214D02*
X134748738Y-131649071D01*
X134748738Y-131649071D02*
X134677310Y-131720500D01*
X134677310Y-131720500D02*
X134534452Y-131791928D01*
X134534452Y-131791928D02*
X134177310Y-131791928D01*
X134177310Y-131791928D02*
X134034452Y-131720500D01*
X134034452Y-131720500D02*
X133963024Y-131649071D01*
D10*
D11*
X90007200Y-132505800D02*
X198007200Y-132505800D01*
D10*
D11*
X91463026Y-134591928D02*
X91463026Y-133091928D01*
X92320169Y-134591928D02*
X91677312Y-133734785D01*
X92320169Y-133091928D02*
X91463026Y-133949071D01*
X92963026Y-134591928D02*
X92963026Y-133591928D01*
X92963026Y-133091928D02*
X92891598Y-133163357D01*
X92891598Y-133163357D02*
X92963026Y-133234785D01*
X92963026Y-133234785D02*
X93034455Y-133163357D01*
X93034455Y-133163357D02*
X92963026Y-133091928D01*
X92963026Y-133091928D02*
X92963026Y-133234785D01*
X94534455Y-134449071D02*
X94463027Y-134520500D01*
X94463027Y-134520500D02*
X94248741Y-134591928D01*
X94248741Y-134591928D02*
X94105884Y-134591928D01*
X94105884Y-134591928D02*
X93891598Y-134520500D01*
X93891598Y-134520500D02*
X93748741Y-134377642D01*
X93748741Y-134377642D02*
X93677312Y-134234785D01*
X93677312Y-134234785D02*
X93605884Y-133949071D01*
X93605884Y-133949071D02*
X93605884Y-133734785D01*
X93605884Y-133734785D02*
X93677312Y-133449071D01*
X93677312Y-133449071D02*
X93748741Y-133306214D01*
X93748741Y-133306214D02*
X93891598Y-133163357D01*
X93891598Y-133163357D02*
X94105884Y-133091928D01*
X94105884Y-133091928D02*
X94248741Y-133091928D01*
X94248741Y-133091928D02*
X94463027Y-133163357D01*
X94463027Y-133163357D02*
X94534455Y-133234785D01*
X95820170Y-134591928D02*
X95820170Y-133806214D01*
X95820170Y-133806214D02*
X95748741Y-133663357D01*
X95748741Y-133663357D02*
X95605884Y-133591928D01*
X95605884Y-133591928D02*
X95320170Y-133591928D01*
X95320170Y-133591928D02*
X95177312Y-133663357D01*
X95820170Y-134520500D02*
X95677312Y-134591928D01*
X95677312Y-134591928D02*
X95320170Y-134591928D01*
X95320170Y-134591928D02*
X95177312Y-134520500D01*
X95177312Y-134520500D02*
X95105884Y-134377642D01*
X95105884Y-134377642D02*
X95105884Y-134234785D01*
X95105884Y-134234785D02*
X95177312Y-134091928D01*
X95177312Y-134091928D02*
X95320170Y-134020500D01*
X95320170Y-134020500D02*
X95677312Y-134020500D01*
X95677312Y-134020500D02*
X95820170Y-133949071D01*
X97177313Y-134591928D02*
X97177313Y-133091928D01*
X97177313Y-134520500D02*
X97034455Y-134591928D01*
X97034455Y-134591928D02*
X96748741Y-134591928D01*
X96748741Y-134591928D02*
X96605884Y-134520500D01*
X96605884Y-134520500D02*
X96534455Y-134449071D01*
X96534455Y-134449071D02*
X96463027Y-134306214D01*
X96463027Y-134306214D02*
X96463027Y-133877642D01*
X96463027Y-133877642D02*
X96534455Y-133734785D01*
X96534455Y-133734785D02*
X96605884Y-133663357D01*
X96605884Y-133663357D02*
X96748741Y-133591928D01*
X96748741Y-133591928D02*
X97034455Y-133591928D01*
X97034455Y-133591928D02*
X97177313Y-133663357D01*
X99034455Y-133806214D02*
X99534455Y-133806214D01*
X99748741Y-134591928D02*
X99034455Y-134591928D01*
X99034455Y-134591928D02*
X99034455Y-133091928D01*
X99034455Y-133091928D02*
X99748741Y-133091928D01*
X100391598Y-134449071D02*
X100463027Y-134520500D01*
X100463027Y-134520500D02*
X100391598Y-134591928D01*
X100391598Y-134591928D02*
X100320170Y-134520500D01*
X100320170Y-134520500D02*
X100391598Y-134449071D01*
X100391598Y-134449071D02*
X100391598Y-134591928D01*
X101105884Y-134591928D02*
X101105884Y-133091928D01*
X101105884Y-133091928D02*
X101463027Y-133091928D01*
X101463027Y-133091928D02*
X101677313Y-133163357D01*
X101677313Y-133163357D02*
X101820170Y-133306214D01*
X101820170Y-133306214D02*
X101891599Y-133449071D01*
X101891599Y-133449071D02*
X101963027Y-133734785D01*
X101963027Y-133734785D02*
X101963027Y-133949071D01*
X101963027Y-133949071D02*
X101891599Y-134234785D01*
X101891599Y-134234785D02*
X101820170Y-134377642D01*
X101820170Y-134377642D02*
X101677313Y-134520500D01*
X101677313Y-134520500D02*
X101463027Y-134591928D01*
X101463027Y-134591928D02*
X101105884Y-134591928D01*
X102605884Y-134449071D02*
X102677313Y-134520500D01*
X102677313Y-134520500D02*
X102605884Y-134591928D01*
X102605884Y-134591928D02*
X102534456Y-134520500D01*
X102534456Y-134520500D02*
X102605884Y-134449071D01*
X102605884Y-134449071D02*
X102605884Y-134591928D01*
X103248742Y-134163357D02*
X103963028Y-134163357D01*
X103105885Y-134591928D02*
X103605885Y-133091928D01*
X103605885Y-133091928D02*
X104105885Y-134591928D01*
X104605884Y-134449071D02*
X104677313Y-134520500D01*
X104677313Y-134520500D02*
X104605884Y-134591928D01*
X104605884Y-134591928D02*
X104534456Y-134520500D01*
X104534456Y-134520500D02*
X104605884Y-134449071D01*
X104605884Y-134449071D02*
X104605884Y-134591928D01*
X106534456Y-134591928D02*
X106820170Y-134591928D01*
X106820170Y-134591928D02*
X106963027Y-134520500D01*
X106963027Y-134520500D02*
X107034456Y-134449071D01*
X107034456Y-134449071D02*
X107177313Y-134234785D01*
X107177313Y-134234785D02*
X107248742Y-133949071D01*
X107248742Y-133949071D02*
X107248742Y-133377642D01*
X107248742Y-133377642D02*
X107177313Y-133234785D01*
X107177313Y-133234785D02*
X107105885Y-133163357D01*
X107105885Y-133163357D02*
X106963027Y-133091928D01*
X106963027Y-133091928D02*
X106677313Y-133091928D01*
X106677313Y-133091928D02*
X106534456Y-133163357D01*
X106534456Y-133163357D02*
X106463027Y-133234785D01*
X106463027Y-133234785D02*
X106391599Y-133377642D01*
X106391599Y-133377642D02*
X106391599Y-133734785D01*
X106391599Y-133734785D02*
X106463027Y-133877642D01*
X106463027Y-133877642D02*
X106534456Y-133949071D01*
X106534456Y-133949071D02*
X106677313Y-134020500D01*
X106677313Y-134020500D02*
X106963027Y-134020500D01*
X106963027Y-134020500D02*
X107105885Y-133949071D01*
X107105885Y-133949071D02*
X107177313Y-133877642D01*
X107177313Y-133877642D02*
X107248742Y-133734785D01*
X107891598Y-134449071D02*
X107963027Y-134520500D01*
X107963027Y-134520500D02*
X107891598Y-134591928D01*
X107891598Y-134591928D02*
X107820170Y-134520500D01*
X107820170Y-134520500D02*
X107891598Y-134449071D01*
X107891598Y-134449071D02*
X107891598Y-134591928D01*
X108891599Y-133091928D02*
X109034456Y-133091928D01*
X109034456Y-133091928D02*
X109177313Y-133163357D01*
X109177313Y-133163357D02*
X109248742Y-133234785D01*
X109248742Y-133234785D02*
X109320170Y-133377642D01*
X109320170Y-133377642D02*
X109391599Y-133663357D01*
X109391599Y-133663357D02*
X109391599Y-134020500D01*
X109391599Y-134020500D02*
X109320170Y-134306214D01*
X109320170Y-134306214D02*
X109248742Y-134449071D01*
X109248742Y-134449071D02*
X109177313Y-134520500D01*
X109177313Y-134520500D02*
X109034456Y-134591928D01*
X109034456Y-134591928D02*
X108891599Y-134591928D01*
X108891599Y-134591928D02*
X108748742Y-134520500D01*
X108748742Y-134520500D02*
X108677313Y-134449071D01*
X108677313Y-134449071D02*
X108605884Y-134306214D01*
X108605884Y-134306214D02*
X108534456Y-134020500D01*
X108534456Y-134020500D02*
X108534456Y-133663357D01*
X108534456Y-133663357D02*
X108605884Y-133377642D01*
X108605884Y-133377642D02*
X108677313Y-133234785D01*
X108677313Y-133234785D02*
X108748742Y-133163357D01*
X108748742Y-133163357D02*
X108891599Y-133091928D01*
X110034455Y-134449071D02*
X110105884Y-134520500D01*
X110105884Y-134520500D02*
X110034455Y-134591928D01*
X110034455Y-134591928D02*
X109963027Y-134520500D01*
X109963027Y-134520500D02*
X110034455Y-134449071D01*
X110034455Y-134449071D02*
X110034455Y-134591928D01*
X110605884Y-133091928D02*
X111605884Y-133091928D01*
X111605884Y-133091928D02*
X110963027Y-134591928D01*
D10*
D11*
X90007200Y-129505800D02*
X198007200Y-129505800D01*
D10*
D12*
X177418853Y-131784128D02*
X176918853Y-131069842D01*
X176561710Y-131784128D02*
X176561710Y-130284128D01*
X176561710Y-130284128D02*
X177133139Y-130284128D01*
X177133139Y-130284128D02*
X177275996Y-130355557D01*
X177275996Y-130355557D02*
X177347425Y-130426985D01*
X177347425Y-130426985D02*
X177418853Y-130569842D01*
X177418853Y-130569842D02*
X177418853Y-130784128D01*
X177418853Y-130784128D02*
X177347425Y-130926985D01*
X177347425Y-130926985D02*
X177275996Y-130998414D01*
X177275996Y-130998414D02*
X177133139Y-131069842D01*
X177133139Y-131069842D02*
X176561710Y-131069842D01*
X178633139Y-131712700D02*
X178490282Y-131784128D01*
X178490282Y-131784128D02*
X178204568Y-131784128D01*
X178204568Y-131784128D02*
X178061710Y-131712700D01*
X178061710Y-131712700D02*
X177990282Y-131569842D01*
X177990282Y-131569842D02*
X177990282Y-130998414D01*
X177990282Y-130998414D02*
X178061710Y-130855557D01*
X178061710Y-130855557D02*
X178204568Y-130784128D01*
X178204568Y-130784128D02*
X178490282Y-130784128D01*
X178490282Y-130784128D02*
X178633139Y-130855557D01*
X178633139Y-130855557D02*
X178704568Y-130998414D01*
X178704568Y-130998414D02*
X178704568Y-131141271D01*
X178704568Y-131141271D02*
X177990282Y-131284128D01*
X179204567Y-130784128D02*
X179561710Y-131784128D01*
X179561710Y-131784128D02*
X179918853Y-130784128D01*
X180490281Y-131641271D02*
X180561710Y-131712700D01*
X180561710Y-131712700D02*
X180490281Y-131784128D01*
X180490281Y-131784128D02*
X180418853Y-131712700D01*
X180418853Y-131712700D02*
X180490281Y-131641271D01*
X180490281Y-131641271D02*
X180490281Y-131784128D01*
X180490281Y-130855557D02*
X180561710Y-130926985D01*
X180561710Y-130926985D02*
X180490281Y-130998414D01*
X180490281Y-130998414D02*
X180418853Y-130926985D01*
X180418853Y-130926985D02*
X180490281Y-130855557D01*
X180490281Y-130855557D02*
X180490281Y-130998414D01*
X183133139Y-131784128D02*
X182275996Y-131784128D01*
X182704567Y-131784128D02*
X182704567Y-130284128D01*
X182704567Y-130284128D02*
X182561710Y-130498414D01*
X182561710Y-130498414D02*
X182418853Y-130641271D01*
X182418853Y-130641271D02*
X182275996Y-130712700D01*
D10*
D11*
X91391598Y-131720500D02*
X91605884Y-131791928D01*
X91605884Y-131791928D02*
X91963026Y-131791928D01*
X91963026Y-131791928D02*
X92105884Y-131720500D01*
X92105884Y-131720500D02*
X92177312Y-131649071D01*
X92177312Y-131649071D02*
X92248741Y-131506214D01*
X92248741Y-131506214D02*
X92248741Y-131363357D01*
X92248741Y-131363357D02*
X92177312Y-131220500D01*
X92177312Y-131220500D02*
X92105884Y-131149071D01*
X92105884Y-131149071D02*
X91963026Y-131077642D01*
X91963026Y-131077642D02*
X91677312Y-131006214D01*
X91677312Y-131006214D02*
X91534455Y-130934785D01*
X91534455Y-130934785D02*
X91463026Y-130863357D01*
X91463026Y-130863357D02*
X91391598Y-130720500D01*
X91391598Y-130720500D02*
X91391598Y-130577642D01*
X91391598Y-130577642D02*
X91463026Y-130434785D01*
X91463026Y-130434785D02*
X91534455Y-130363357D01*
X91534455Y-130363357D02*
X91677312Y-130291928D01*
X91677312Y-130291928D02*
X92034455Y-130291928D01*
X92034455Y-130291928D02*
X92248741Y-130363357D01*
X92891597Y-131791928D02*
X92891597Y-130791928D01*
X92891597Y-130291928D02*
X92820169Y-130363357D01*
X92820169Y-130363357D02*
X92891597Y-130434785D01*
X92891597Y-130434785D02*
X92963026Y-130363357D01*
X92963026Y-130363357D02*
X92891597Y-130291928D01*
X92891597Y-130291928D02*
X92891597Y-130434785D01*
X93463026Y-130791928D02*
X94248741Y-130791928D01*
X94248741Y-130791928D02*
X93463026Y-131791928D01*
X93463026Y-131791928D02*
X94248741Y-131791928D01*
X95391598Y-131720500D02*
X95248741Y-131791928D01*
X95248741Y-131791928D02*
X94963027Y-131791928D01*
X94963027Y-131791928D02*
X94820169Y-131720500D01*
X94820169Y-131720500D02*
X94748741Y-131577642D01*
X94748741Y-131577642D02*
X94748741Y-131006214D01*
X94748741Y-131006214D02*
X94820169Y-130863357D01*
X94820169Y-130863357D02*
X94963027Y-130791928D01*
X94963027Y-130791928D02*
X95248741Y-130791928D01*
X95248741Y-130791928D02*
X95391598Y-130863357D01*
X95391598Y-130863357D02*
X95463027Y-131006214D01*
X95463027Y-131006214D02*
X95463027Y-131149071D01*
X95463027Y-131149071D02*
X94748741Y-131291928D01*
X96105883Y-131649071D02*
X96177312Y-131720500D01*
X96177312Y-131720500D02*
X96105883Y-131791928D01*
X96105883Y-131791928D02*
X96034455Y-131720500D01*
X96034455Y-131720500D02*
X96105883Y-131649071D01*
X96105883Y-131649071D02*
X96105883Y-131791928D01*
X96105883Y-130863357D02*
X96177312Y-130934785D01*
X96177312Y-130934785D02*
X96105883Y-131006214D01*
X96105883Y-131006214D02*
X96034455Y-130934785D01*
X96034455Y-130934785D02*
X96105883Y-130863357D01*
X96105883Y-130863357D02*
X96105883Y-131006214D01*
X97891598Y-131363357D02*
X98605884Y-131363357D01*
X97748741Y-131791928D02*
X98248741Y-130291928D01*
X98248741Y-130291928D02*
X98748741Y-131791928D01*
X99963026Y-130291928D02*
X99248740Y-130291928D01*
X99248740Y-130291928D02*
X99177312Y-131006214D01*
X99177312Y-131006214D02*
X99248740Y-130934785D01*
X99248740Y-130934785D02*
X99391598Y-130863357D01*
X99391598Y-130863357D02*
X99748740Y-130863357D01*
X99748740Y-130863357D02*
X99891598Y-130934785D01*
X99891598Y-130934785D02*
X99963026Y-131006214D01*
X99963026Y-131006214D02*
X100034455Y-131149071D01*
X100034455Y-131149071D02*
X100034455Y-131506214D01*
X100034455Y-131506214D02*
X99963026Y-131649071D01*
X99963026Y-131649071D02*
X99891598Y-131720500D01*
X99891598Y-131720500D02*
X99748740Y-131791928D01*
X99748740Y-131791928D02*
X99391598Y-131791928D01*
X99391598Y-131791928D02*
X99248740Y-131720500D01*
X99248740Y-131720500D02*
X99177312Y-131649071D01*
D10*
D11*
X176463026Y-134591928D02*
X176463026Y-133091928D01*
X177820170Y-134591928D02*
X177820170Y-133091928D01*
X177820170Y-134520500D02*
X177677312Y-134591928D01*
X177677312Y-134591928D02*
X177391598Y-134591928D01*
X177391598Y-134591928D02*
X177248741Y-134520500D01*
X177248741Y-134520500D02*
X177177312Y-134449071D01*
X177177312Y-134449071D02*
X177105884Y-134306214D01*
X177105884Y-134306214D02*
X177105884Y-133877642D01*
X177105884Y-133877642D02*
X177177312Y-133734785D01*
X177177312Y-133734785D02*
X177248741Y-133663357D01*
X177248741Y-133663357D02*
X177391598Y-133591928D01*
X177391598Y-133591928D02*
X177677312Y-133591928D01*
X177677312Y-133591928D02*
X177820170Y-133663357D01*
X178534455Y-134449071D02*
X178605884Y-134520500D01*
X178605884Y-134520500D02*
X178534455Y-134591928D01*
X178534455Y-134591928D02*
X178463027Y-134520500D01*
X178463027Y-134520500D02*
X178534455Y-134449071D01*
X178534455Y-134449071D02*
X178534455Y-134591928D01*
X178534455Y-133663357D02*
X178605884Y-133734785D01*
X178605884Y-133734785D02*
X178534455Y-133806214D01*
X178534455Y-133806214D02*
X178463027Y-133734785D01*
X178463027Y-133734785D02*
X178534455Y-133663357D01*
X178534455Y-133663357D02*
X178534455Y-133806214D01*
X180320170Y-133234785D02*
X180391598Y-133163357D01*
X180391598Y-133163357D02*
X180534456Y-133091928D01*
X180534456Y-133091928D02*
X180891598Y-133091928D01*
X180891598Y-133091928D02*
X181034456Y-133163357D01*
X181034456Y-133163357D02*
X181105884Y-133234785D01*
X181105884Y-133234785D02*
X181177313Y-133377642D01*
X181177313Y-133377642D02*
X181177313Y-133520500D01*
X181177313Y-133520500D02*
X181105884Y-133734785D01*
X181105884Y-133734785D02*
X180248741Y-134591928D01*
X180248741Y-134591928D02*
X181177313Y-134591928D01*
X182891598Y-133020500D02*
X181605884Y-134949071D01*
X183248741Y-133091928D02*
X184177313Y-133091928D01*
X184177313Y-133091928D02*
X183677313Y-133663357D01*
X183677313Y-133663357D02*
X183891598Y-133663357D01*
X183891598Y-133663357D02*
X184034456Y-133734785D01*
X184034456Y-133734785D02*
X184105884Y-133806214D01*
X184105884Y-133806214D02*
X184177313Y-133949071D01*
X184177313Y-133949071D02*
X184177313Y-134306214D01*
X184177313Y-134306214D02*
X184105884Y-134449071D01*
X184105884Y-134449071D02*
X184034456Y-134520500D01*
X184034456Y-134520500D02*
X183891598Y-134591928D01*
X183891598Y-134591928D02*
X183463027Y-134591928D01*
X183463027Y-134591928D02*
X183320170Y-134520500D01*
X183320170Y-134520500D02*
X183248741Y-134449071D01*
D10*
D11*
X90007200Y-125505800D02*
X198007200Y-125505800D01*
D10*
D13*
X91698928Y-126210238D02*
X92841785Y-126210238D01*
X92020357Y-128210238D02*
X92270357Y-126210238D01*
X93258452Y-128210238D02*
X93425119Y-126876904D01*
X93508452Y-126210238D02*
X93401309Y-126305476D01*
X93401309Y-126305476D02*
X93484643Y-126400714D01*
X93484643Y-126400714D02*
X93591786Y-126305476D01*
X93591786Y-126305476D02*
X93508452Y-126210238D01*
X93508452Y-126210238D02*
X93484643Y-126400714D01*
X94091786Y-126876904D02*
X94853690Y-126876904D01*
X94460833Y-126210238D02*
X94246548Y-127924523D01*
X94246548Y-127924523D02*
X94317976Y-128115000D01*
X94317976Y-128115000D02*
X94496548Y-128210238D01*
X94496548Y-128210238D02*
X94687024Y-128210238D01*
X95639405Y-128210238D02*
X95460833Y-128115000D01*
X95460833Y-128115000D02*
X95389405Y-127924523D01*
X95389405Y-127924523D02*
X95603690Y-126210238D01*
X97175119Y-128115000D02*
X96972738Y-128210238D01*
X96972738Y-128210238D02*
X96591785Y-128210238D01*
X96591785Y-128210238D02*
X96413214Y-128115000D01*
X96413214Y-128115000D02*
X96341785Y-127924523D01*
X96341785Y-127924523D02*
X96437024Y-127162619D01*
X96437024Y-127162619D02*
X96556071Y-126972142D01*
X96556071Y-126972142D02*
X96758452Y-126876904D01*
X96758452Y-126876904D02*
X97139404Y-126876904D01*
X97139404Y-126876904D02*
X97317976Y-126972142D01*
X97317976Y-126972142D02*
X97389404Y-127162619D01*
X97389404Y-127162619D02*
X97365595Y-127353095D01*
X97365595Y-127353095D02*
X96389404Y-127543571D01*
X98139405Y-128019761D02*
X98222738Y-128115000D01*
X98222738Y-128115000D02*
X98115595Y-128210238D01*
X98115595Y-128210238D02*
X98032262Y-128115000D01*
X98032262Y-128115000D02*
X98139405Y-128019761D01*
X98139405Y-128019761D02*
X98115595Y-128210238D01*
X98270357Y-126972142D02*
X98353690Y-127067380D01*
X98353690Y-127067380D02*
X98246548Y-127162619D01*
X98246548Y-127162619D02*
X98163214Y-127067380D01*
X98163214Y-127067380D02*
X98270357Y-126972142D01*
X98270357Y-126972142D02*
X98246548Y-127162619D01*
X100591786Y-128210238D02*
X100841786Y-126210238D01*
X100841786Y-126210238D02*
X101329881Y-127638809D01*
X101329881Y-127638809D02*
X102175120Y-126210238D01*
X102175120Y-126210238D02*
X101925120Y-128210238D01*
X103163215Y-128210238D02*
X102984643Y-128115000D01*
X102984643Y-128115000D02*
X102901310Y-128019761D01*
X102901310Y-128019761D02*
X102829881Y-127829285D01*
X102829881Y-127829285D02*
X102901310Y-127257857D01*
X102901310Y-127257857D02*
X103020357Y-127067380D01*
X103020357Y-127067380D02*
X103127500Y-126972142D01*
X103127500Y-126972142D02*
X103329881Y-126876904D01*
X103329881Y-126876904D02*
X103615595Y-126876904D01*
X103615595Y-126876904D02*
X103794167Y-126972142D01*
X103794167Y-126972142D02*
X103877500Y-127067380D01*
X103877500Y-127067380D02*
X103948929Y-127257857D01*
X103948929Y-127257857D02*
X103877500Y-127829285D01*
X103877500Y-127829285D02*
X103758453Y-128019761D01*
X103758453Y-128019761D02*
X103651310Y-128115000D01*
X103651310Y-128115000D02*
X103448929Y-128210238D01*
X103448929Y-128210238D02*
X103163215Y-128210238D01*
X104567977Y-126876904D02*
X105329881Y-126876904D01*
X104937024Y-126210238D02*
X104722739Y-127924523D01*
X104722739Y-127924523D02*
X104794167Y-128115000D01*
X104794167Y-128115000D02*
X104972739Y-128210238D01*
X104972739Y-128210238D02*
X105163215Y-128210238D01*
X106115596Y-128210238D02*
X105937024Y-128115000D01*
X105937024Y-128115000D02*
X105853691Y-128019761D01*
X105853691Y-128019761D02*
X105782262Y-127829285D01*
X105782262Y-127829285D02*
X105853691Y-127257857D01*
X105853691Y-127257857D02*
X105972738Y-127067380D01*
X105972738Y-127067380D02*
X106079881Y-126972142D01*
X106079881Y-126972142D02*
X106282262Y-126876904D01*
X106282262Y-126876904D02*
X106567976Y-126876904D01*
X106567976Y-126876904D02*
X106746548Y-126972142D01*
X106746548Y-126972142D02*
X106829881Y-127067380D01*
X106829881Y-127067380D02*
X106901310Y-127257857D01*
X106901310Y-127257857D02*
X106829881Y-127829285D01*
X106829881Y-127829285D02*
X106710834Y-128019761D01*
X106710834Y-128019761D02*
X106603691Y-128115000D01*
X106603691Y-128115000D02*
X106401310Y-128210238D01*
X106401310Y-128210238D02*
X106115596Y-128210238D01*
X107639405Y-128210238D02*
X107806072Y-126876904D01*
X107758453Y-127257857D02*
X107877500Y-127067380D01*
X107877500Y-127067380D02*
X107984643Y-126972142D01*
X107984643Y-126972142D02*
X108187024Y-126876904D01*
X108187024Y-126876904D02*
X108377500Y-126876904D01*
X110401310Y-128210238D02*
X110651310Y-126210238D01*
X110651310Y-126210238D02*
X111127501Y-126210238D01*
X111127501Y-126210238D02*
X111401310Y-126305476D01*
X111401310Y-126305476D02*
X111567977Y-126495952D01*
X111567977Y-126495952D02*
X111639405Y-126686428D01*
X111639405Y-126686428D02*
X111687025Y-127067380D01*
X111687025Y-127067380D02*
X111651310Y-127353095D01*
X111651310Y-127353095D02*
X111508453Y-127734047D01*
X111508453Y-127734047D02*
X111389405Y-127924523D01*
X111389405Y-127924523D02*
X111175120Y-128115000D01*
X111175120Y-128115000D02*
X110877501Y-128210238D01*
X110877501Y-128210238D02*
X110401310Y-128210238D01*
X112401310Y-128210238D02*
X112567977Y-126876904D01*
X112520358Y-127257857D02*
X112639405Y-127067380D01*
X112639405Y-127067380D02*
X112746548Y-126972142D01*
X112746548Y-126972142D02*
X112948929Y-126876904D01*
X112948929Y-126876904D02*
X113139405Y-126876904D01*
X113639405Y-128210238D02*
X113806072Y-126876904D01*
X113889405Y-126210238D02*
X113782262Y-126305476D01*
X113782262Y-126305476D02*
X113865596Y-126400714D01*
X113865596Y-126400714D02*
X113972739Y-126305476D01*
X113972739Y-126305476D02*
X113889405Y-126210238D01*
X113889405Y-126210238D02*
X113865596Y-126400714D01*
X114567977Y-126876904D02*
X114877501Y-128210238D01*
X114877501Y-128210238D02*
X115520358Y-126876904D01*
X116889406Y-128115000D02*
X116687025Y-128210238D01*
X116687025Y-128210238D02*
X116306072Y-128210238D01*
X116306072Y-128210238D02*
X116127501Y-128115000D01*
X116127501Y-128115000D02*
X116056072Y-127924523D01*
X116056072Y-127924523D02*
X116151311Y-127162619D01*
X116151311Y-127162619D02*
X116270358Y-126972142D01*
X116270358Y-126972142D02*
X116472739Y-126876904D01*
X116472739Y-126876904D02*
X116853691Y-126876904D01*
X116853691Y-126876904D02*
X117032263Y-126972142D01*
X117032263Y-126972142D02*
X117103691Y-127162619D01*
X117103691Y-127162619D02*
X117079882Y-127353095D01*
X117079882Y-127353095D02*
X116103691Y-127543571D01*
X117829882Y-128210238D02*
X117996549Y-126876904D01*
X117948930Y-127257857D02*
X118067977Y-127067380D01*
X118067977Y-127067380D02*
X118175120Y-126972142D01*
X118175120Y-126972142D02*
X118377501Y-126876904D01*
X118377501Y-126876904D02*
X118567977Y-126876904D01*
X121389406Y-127162619D02*
X121663216Y-127257857D01*
X121663216Y-127257857D02*
X121746549Y-127353095D01*
X121746549Y-127353095D02*
X121817978Y-127543571D01*
X121817978Y-127543571D02*
X121782263Y-127829285D01*
X121782263Y-127829285D02*
X121663216Y-128019761D01*
X121663216Y-128019761D02*
X121556073Y-128115000D01*
X121556073Y-128115000D02*
X121353692Y-128210238D01*
X121353692Y-128210238D02*
X120591787Y-128210238D01*
X120591787Y-128210238D02*
X120841787Y-126210238D01*
X120841787Y-126210238D02*
X121508454Y-126210238D01*
X121508454Y-126210238D02*
X121687025Y-126305476D01*
X121687025Y-126305476D02*
X121770359Y-126400714D01*
X121770359Y-126400714D02*
X121841787Y-126591190D01*
X121841787Y-126591190D02*
X121817978Y-126781666D01*
X121817978Y-126781666D02*
X121698930Y-126972142D01*
X121698930Y-126972142D02*
X121591787Y-127067380D01*
X121591787Y-127067380D02*
X121389406Y-127162619D01*
X121389406Y-127162619D02*
X120722740Y-127162619D01*
X122877502Y-128210238D02*
X122698930Y-128115000D01*
X122698930Y-128115000D02*
X122615597Y-128019761D01*
X122615597Y-128019761D02*
X122544168Y-127829285D01*
X122544168Y-127829285D02*
X122615597Y-127257857D01*
X122615597Y-127257857D02*
X122734644Y-127067380D01*
X122734644Y-127067380D02*
X122841787Y-126972142D01*
X122841787Y-126972142D02*
X123044168Y-126876904D01*
X123044168Y-126876904D02*
X123329882Y-126876904D01*
X123329882Y-126876904D02*
X123508454Y-126972142D01*
X123508454Y-126972142D02*
X123591787Y-127067380D01*
X123591787Y-127067380D02*
X123663216Y-127257857D01*
X123663216Y-127257857D02*
X123591787Y-127829285D01*
X123591787Y-127829285D02*
X123472740Y-128019761D01*
X123472740Y-128019761D02*
X123365597Y-128115000D01*
X123365597Y-128115000D02*
X123163216Y-128210238D01*
X123163216Y-128210238D02*
X122877502Y-128210238D01*
X125258454Y-128210238D02*
X125389406Y-127162619D01*
X125389406Y-127162619D02*
X125317978Y-126972142D01*
X125317978Y-126972142D02*
X125139406Y-126876904D01*
X125139406Y-126876904D02*
X124758454Y-126876904D01*
X124758454Y-126876904D02*
X124556073Y-126972142D01*
X125270359Y-128115000D02*
X125067978Y-128210238D01*
X125067978Y-128210238D02*
X124591787Y-128210238D01*
X124591787Y-128210238D02*
X124413216Y-128115000D01*
X124413216Y-128115000D02*
X124341787Y-127924523D01*
X124341787Y-127924523D02*
X124365597Y-127734047D01*
X124365597Y-127734047D02*
X124484645Y-127543571D01*
X124484645Y-127543571D02*
X124687026Y-127448333D01*
X124687026Y-127448333D02*
X125163216Y-127448333D01*
X125163216Y-127448333D02*
X125365597Y-127353095D01*
X126210835Y-128210238D02*
X126377502Y-126876904D01*
X126329883Y-127257857D02*
X126448930Y-127067380D01*
X126448930Y-127067380D02*
X126556073Y-126972142D01*
X126556073Y-126972142D02*
X126758454Y-126876904D01*
X126758454Y-126876904D02*
X126948930Y-126876904D01*
X128306073Y-128210238D02*
X128556073Y-126210238D01*
X128317978Y-128115000D02*
X128115597Y-128210238D01*
X128115597Y-128210238D02*
X127734645Y-128210238D01*
X127734645Y-128210238D02*
X127556073Y-128115000D01*
X127556073Y-128115000D02*
X127472740Y-128019761D01*
X127472740Y-128019761D02*
X127401311Y-127829285D01*
X127401311Y-127829285D02*
X127472740Y-127257857D01*
X127472740Y-127257857D02*
X127591787Y-127067380D01*
X127591787Y-127067380D02*
X127698930Y-126972142D01*
X127698930Y-126972142D02*
X127901311Y-126876904D01*
X127901311Y-126876904D02*
X128282264Y-126876904D01*
X128282264Y-126876904D02*
X128460835Y-126972142D01*
D10*
D11*
X91963026Y-123606214D02*
X91463026Y-123606214D01*
X91463026Y-124391928D02*
X91463026Y-122891928D01*
X91463026Y-122891928D02*
X92177312Y-122891928D01*
X92748740Y-124391928D02*
X92748740Y-123391928D01*
X92748740Y-122891928D02*
X92677312Y-122963357D01*
X92677312Y-122963357D02*
X92748740Y-123034785D01*
X92748740Y-123034785D02*
X92820169Y-122963357D01*
X92820169Y-122963357D02*
X92748740Y-122891928D01*
X92748740Y-122891928D02*
X92748740Y-123034785D01*
X93677312Y-124391928D02*
X93534455Y-124320500D01*
X93534455Y-124320500D02*
X93463026Y-124177642D01*
X93463026Y-124177642D02*
X93463026Y-122891928D01*
X94820169Y-124320500D02*
X94677312Y-124391928D01*
X94677312Y-124391928D02*
X94391598Y-124391928D01*
X94391598Y-124391928D02*
X94248740Y-124320500D01*
X94248740Y-124320500D02*
X94177312Y-124177642D01*
X94177312Y-124177642D02*
X94177312Y-123606214D01*
X94177312Y-123606214D02*
X94248740Y-123463357D01*
X94248740Y-123463357D02*
X94391598Y-123391928D01*
X94391598Y-123391928D02*
X94677312Y-123391928D01*
X94677312Y-123391928D02*
X94820169Y-123463357D01*
X94820169Y-123463357D02*
X94891598Y-123606214D01*
X94891598Y-123606214D02*
X94891598Y-123749071D01*
X94891598Y-123749071D02*
X94177312Y-123891928D01*
X95534454Y-124249071D02*
X95605883Y-124320500D01*
X95605883Y-124320500D02*
X95534454Y-124391928D01*
X95534454Y-124391928D02*
X95463026Y-124320500D01*
X95463026Y-124320500D02*
X95534454Y-124249071D01*
X95534454Y-124249071D02*
X95534454Y-124391928D01*
X95534454Y-123463357D02*
X95605883Y-123534785D01*
X95605883Y-123534785D02*
X95534454Y-123606214D01*
X95534454Y-123606214D02*
X95463026Y-123534785D01*
X95463026Y-123534785D02*
X95534454Y-123463357D01*
X95534454Y-123463357D02*
X95534454Y-123606214D01*
X97391597Y-124391928D02*
X97391597Y-123391928D01*
X97391597Y-123534785D02*
X97463026Y-123463357D01*
X97463026Y-123463357D02*
X97605883Y-123391928D01*
X97605883Y-123391928D02*
X97820169Y-123391928D01*
X97820169Y-123391928D02*
X97963026Y-123463357D01*
X97963026Y-123463357D02*
X98034455Y-123606214D01*
X98034455Y-123606214D02*
X98034455Y-124391928D01*
X98034455Y-123606214D02*
X98105883Y-123463357D01*
X98105883Y-123463357D02*
X98248740Y-123391928D01*
X98248740Y-123391928D02*
X98463026Y-123391928D01*
X98463026Y-123391928D02*
X98605883Y-123463357D01*
X98605883Y-123463357D02*
X98677312Y-123606214D01*
X98677312Y-123606214D02*
X98677312Y-124391928D01*
X99605883Y-124391928D02*
X99463026Y-124320500D01*
X99463026Y-124320500D02*
X99391597Y-124249071D01*
X99391597Y-124249071D02*
X99320169Y-124106214D01*
X99320169Y-124106214D02*
X99320169Y-123677642D01*
X99320169Y-123677642D02*
X99391597Y-123534785D01*
X99391597Y-123534785D02*
X99463026Y-123463357D01*
X99463026Y-123463357D02*
X99605883Y-123391928D01*
X99605883Y-123391928D02*
X99820169Y-123391928D01*
X99820169Y-123391928D02*
X99963026Y-123463357D01*
X99963026Y-123463357D02*
X100034455Y-123534785D01*
X100034455Y-123534785D02*
X100105883Y-123677642D01*
X100105883Y-123677642D02*
X100105883Y-124106214D01*
X100105883Y-124106214D02*
X100034455Y-124249071D01*
X100034455Y-124249071D02*
X99963026Y-124320500D01*
X99963026Y-124320500D02*
X99820169Y-124391928D01*
X99820169Y-124391928D02*
X99605883Y-124391928D01*
X100534455Y-123391928D02*
X101105883Y-123391928D01*
X100748740Y-122891928D02*
X100748740Y-124177642D01*
X100748740Y-124177642D02*
X100820169Y-124320500D01*
X100820169Y-124320500D02*
X100963026Y-124391928D01*
X100963026Y-124391928D02*
X101105883Y-124391928D01*
X101820169Y-124391928D02*
X101677312Y-124320500D01*
X101677312Y-124320500D02*
X101605883Y-124249071D01*
X101605883Y-124249071D02*
X101534455Y-124106214D01*
X101534455Y-124106214D02*
X101534455Y-123677642D01*
X101534455Y-123677642D02*
X101605883Y-123534785D01*
X101605883Y-123534785D02*
X101677312Y-123463357D01*
X101677312Y-123463357D02*
X101820169Y-123391928D01*
X101820169Y-123391928D02*
X102034455Y-123391928D01*
X102034455Y-123391928D02*
X102177312Y-123463357D01*
X102177312Y-123463357D02*
X102248741Y-123534785D01*
X102248741Y-123534785D02*
X102320169Y-123677642D01*
X102320169Y-123677642D02*
X102320169Y-124106214D01*
X102320169Y-124106214D02*
X102248741Y-124249071D01*
X102248741Y-124249071D02*
X102177312Y-124320500D01*
X102177312Y-124320500D02*
X102034455Y-124391928D01*
X102034455Y-124391928D02*
X101820169Y-124391928D01*
X102963026Y-124391928D02*
X102963026Y-123391928D01*
X102963026Y-123677642D02*
X103034455Y-123534785D01*
X103034455Y-123534785D02*
X103105884Y-123463357D01*
X103105884Y-123463357D02*
X103248741Y-123391928D01*
X103248741Y-123391928D02*
X103391598Y-123391928D01*
X103891597Y-123820500D02*
X105034455Y-123820500D01*
X106391598Y-124391928D02*
X106391598Y-122891928D01*
X106391598Y-124320500D02*
X106248740Y-124391928D01*
X106248740Y-124391928D02*
X105963026Y-124391928D01*
X105963026Y-124391928D02*
X105820169Y-124320500D01*
X105820169Y-124320500D02*
X105748740Y-124249071D01*
X105748740Y-124249071D02*
X105677312Y-124106214D01*
X105677312Y-124106214D02*
X105677312Y-123677642D01*
X105677312Y-123677642D02*
X105748740Y-123534785D01*
X105748740Y-123534785D02*
X105820169Y-123463357D01*
X105820169Y-123463357D02*
X105963026Y-123391928D01*
X105963026Y-123391928D02*
X106248740Y-123391928D01*
X106248740Y-123391928D02*
X106391598Y-123463357D01*
X107105883Y-124391928D02*
X107105883Y-123391928D01*
X107105883Y-123677642D02*
X107177312Y-123534785D01*
X107177312Y-123534785D02*
X107248741Y-123463357D01*
X107248741Y-123463357D02*
X107391598Y-123391928D01*
X107391598Y-123391928D02*
X107534455Y-123391928D01*
X108034454Y-124391928D02*
X108034454Y-123391928D01*
X108034454Y-122891928D02*
X107963026Y-122963357D01*
X107963026Y-122963357D02*
X108034454Y-123034785D01*
X108034454Y-123034785D02*
X108105883Y-122963357D01*
X108105883Y-122963357D02*
X108034454Y-122891928D01*
X108034454Y-122891928D02*
X108034454Y-123034785D01*
X108605883Y-123391928D02*
X108963026Y-124391928D01*
X108963026Y-124391928D02*
X109320169Y-123391928D01*
X110463026Y-124320500D02*
X110320169Y-124391928D01*
X110320169Y-124391928D02*
X110034455Y-124391928D01*
X110034455Y-124391928D02*
X109891597Y-124320500D01*
X109891597Y-124320500D02*
X109820169Y-124177642D01*
X109820169Y-124177642D02*
X109820169Y-123606214D01*
X109820169Y-123606214D02*
X109891597Y-123463357D01*
X109891597Y-123463357D02*
X110034455Y-123391928D01*
X110034455Y-123391928D02*
X110320169Y-123391928D01*
X110320169Y-123391928D02*
X110463026Y-123463357D01*
X110463026Y-123463357D02*
X110534455Y-123606214D01*
X110534455Y-123606214D02*
X110534455Y-123749071D01*
X110534455Y-123749071D02*
X109820169Y-123891928D01*
X111177311Y-124391928D02*
X111177311Y-123391928D01*
X111177311Y-123677642D02*
X111248740Y-123534785D01*
X111248740Y-123534785D02*
X111320169Y-123463357D01*
X111320169Y-123463357D02*
X111463026Y-123391928D01*
X111463026Y-123391928D02*
X111605883Y-123391928D01*
X112105882Y-124249071D02*
X112177311Y-124320500D01*
X112177311Y-124320500D02*
X112105882Y-124391928D01*
X112105882Y-124391928D02*
X112034454Y-124320500D01*
X112034454Y-124320500D02*
X112105882Y-124249071D01*
X112105882Y-124249071D02*
X112105882Y-124391928D01*
X112820168Y-124391928D02*
X112820168Y-122891928D01*
X112963026Y-123820500D02*
X113391597Y-124391928D01*
X113391597Y-123391928D02*
X112820168Y-123963357D01*
X114034454Y-124391928D02*
X114034454Y-123391928D01*
X114034454Y-122891928D02*
X113963026Y-122963357D01*
X113963026Y-122963357D02*
X114034454Y-123034785D01*
X114034454Y-123034785D02*
X114105883Y-122963357D01*
X114105883Y-122963357D02*
X114034454Y-122891928D01*
X114034454Y-122891928D02*
X114034454Y-123034785D01*
X115391598Y-124320500D02*
X115248740Y-124391928D01*
X115248740Y-124391928D02*
X114963026Y-124391928D01*
X114963026Y-124391928D02*
X114820169Y-124320500D01*
X114820169Y-124320500D02*
X114748740Y-124249071D01*
X114748740Y-124249071D02*
X114677312Y-124106214D01*
X114677312Y-124106214D02*
X114677312Y-123677642D01*
X114677312Y-123677642D02*
X114748740Y-123534785D01*
X114748740Y-123534785D02*
X114820169Y-123463357D01*
X114820169Y-123463357D02*
X114963026Y-123391928D01*
X114963026Y-123391928D02*
X115248740Y-123391928D01*
X115248740Y-123391928D02*
X115391598Y-123463357D01*
X116677312Y-124391928D02*
X116677312Y-123606214D01*
X116677312Y-123606214D02*
X116605883Y-123463357D01*
X116605883Y-123463357D02*
X116463026Y-123391928D01*
X116463026Y-123391928D02*
X116177312Y-123391928D01*
X116177312Y-123391928D02*
X116034454Y-123463357D01*
X116677312Y-124320500D02*
X116534454Y-124391928D01*
X116534454Y-124391928D02*
X116177312Y-124391928D01*
X116177312Y-124391928D02*
X116034454Y-124320500D01*
X116034454Y-124320500D02*
X115963026Y-124177642D01*
X115963026Y-124177642D02*
X115963026Y-124034785D01*
X115963026Y-124034785D02*
X116034454Y-123891928D01*
X116034454Y-123891928D02*
X116177312Y-123820500D01*
X116177312Y-123820500D02*
X116534454Y-123820500D01*
X116534454Y-123820500D02*
X116677312Y-123749071D01*
X118034455Y-124391928D02*
X118034455Y-122891928D01*
X118034455Y-124320500D02*
X117891597Y-124391928D01*
X117891597Y-124391928D02*
X117605883Y-124391928D01*
X117605883Y-124391928D02*
X117463026Y-124320500D01*
X117463026Y-124320500D02*
X117391597Y-124249071D01*
X117391597Y-124249071D02*
X117320169Y-124106214D01*
X117320169Y-124106214D02*
X117320169Y-123677642D01*
X117320169Y-123677642D02*
X117391597Y-123534785D01*
X117391597Y-123534785D02*
X117463026Y-123463357D01*
X117463026Y-123463357D02*
X117605883Y-123391928D01*
X117605883Y-123391928D02*
X117891597Y-123391928D01*
X117891597Y-123391928D02*
X118034455Y-123463357D01*
X118391598Y-124534785D02*
X119534455Y-124534785D01*
X119891597Y-123391928D02*
X119891597Y-124891928D01*
X119891597Y-123463357D02*
X120034455Y-123391928D01*
X120034455Y-123391928D02*
X120320169Y-123391928D01*
X120320169Y-123391928D02*
X120463026Y-123463357D01*
X120463026Y-123463357D02*
X120534455Y-123534785D01*
X120534455Y-123534785D02*
X120605883Y-123677642D01*
X120605883Y-123677642D02*
X120605883Y-124106214D01*
X120605883Y-124106214D02*
X120534455Y-124249071D01*
X120534455Y-124249071D02*
X120463026Y-124320500D01*
X120463026Y-124320500D02*
X120320169Y-124391928D01*
X120320169Y-124391928D02*
X120034455Y-124391928D01*
X120034455Y-124391928D02*
X119891597Y-124320500D01*
X121891598Y-124320500D02*
X121748740Y-124391928D01*
X121748740Y-124391928D02*
X121463026Y-124391928D01*
X121463026Y-124391928D02*
X121320169Y-124320500D01*
X121320169Y-124320500D02*
X121248740Y-124249071D01*
X121248740Y-124249071D02*
X121177312Y-124106214D01*
X121177312Y-124106214D02*
X121177312Y-123677642D01*
X121177312Y-123677642D02*
X121248740Y-123534785D01*
X121248740Y-123534785D02*
X121320169Y-123463357D01*
X121320169Y-123463357D02*
X121463026Y-123391928D01*
X121463026Y-123391928D02*
X121748740Y-123391928D01*
X121748740Y-123391928D02*
X121891598Y-123463357D01*
X122534454Y-124391928D02*
X122534454Y-122891928D01*
X122534454Y-123463357D02*
X122677312Y-123391928D01*
X122677312Y-123391928D02*
X122963026Y-123391928D01*
X122963026Y-123391928D02*
X123105883Y-123463357D01*
X123105883Y-123463357D02*
X123177312Y-123534785D01*
X123177312Y-123534785D02*
X123248740Y-123677642D01*
X123248740Y-123677642D02*
X123248740Y-124106214D01*
X123248740Y-124106214D02*
X123177312Y-124249071D01*
X123177312Y-124249071D02*
X123105883Y-124320500D01*
X123105883Y-124320500D02*
X122963026Y-124391928D01*
X122963026Y-124391928D02*
X122677312Y-124391928D01*
X122677312Y-124391928D02*
X122534454Y-124320500D01*
D10*
D11*
X90007200Y-119505800D02*
X198007200Y-119505800D01*
D10*
D11*
X91391598Y-121620500D02*
X91605884Y-121691928D01*
X91605884Y-121691928D02*
X91963026Y-121691928D01*
X91963026Y-121691928D02*
X92105884Y-121620500D01*
X92105884Y-121620500D02*
X92177312Y-121549071D01*
X92177312Y-121549071D02*
X92248741Y-121406214D01*
X92248741Y-121406214D02*
X92248741Y-121263357D01*
X92248741Y-121263357D02*
X92177312Y-121120500D01*
X92177312Y-121120500D02*
X92105884Y-121049071D01*
X92105884Y-121049071D02*
X91963026Y-120977642D01*
X91963026Y-120977642D02*
X91677312Y-120906214D01*
X91677312Y-120906214D02*
X91534455Y-120834785D01*
X91534455Y-120834785D02*
X91463026Y-120763357D01*
X91463026Y-120763357D02*
X91391598Y-120620500D01*
X91391598Y-120620500D02*
X91391598Y-120477642D01*
X91391598Y-120477642D02*
X91463026Y-120334785D01*
X91463026Y-120334785D02*
X91534455Y-120263357D01*
X91534455Y-120263357D02*
X91677312Y-120191928D01*
X91677312Y-120191928D02*
X92034455Y-120191928D01*
X92034455Y-120191928D02*
X92248741Y-120263357D01*
X92891597Y-121691928D02*
X92891597Y-120191928D01*
X93534455Y-121691928D02*
X93534455Y-120906214D01*
X93534455Y-120906214D02*
X93463026Y-120763357D01*
X93463026Y-120763357D02*
X93320169Y-120691928D01*
X93320169Y-120691928D02*
X93105883Y-120691928D01*
X93105883Y-120691928D02*
X92963026Y-120763357D01*
X92963026Y-120763357D02*
X92891597Y-120834785D01*
X94820169Y-121620500D02*
X94677312Y-121691928D01*
X94677312Y-121691928D02*
X94391598Y-121691928D01*
X94391598Y-121691928D02*
X94248740Y-121620500D01*
X94248740Y-121620500D02*
X94177312Y-121477642D01*
X94177312Y-121477642D02*
X94177312Y-120906214D01*
X94177312Y-120906214D02*
X94248740Y-120763357D01*
X94248740Y-120763357D02*
X94391598Y-120691928D01*
X94391598Y-120691928D02*
X94677312Y-120691928D01*
X94677312Y-120691928D02*
X94820169Y-120763357D01*
X94820169Y-120763357D02*
X94891598Y-120906214D01*
X94891598Y-120906214D02*
X94891598Y-121049071D01*
X94891598Y-121049071D02*
X94177312Y-121191928D01*
X96105883Y-121620500D02*
X95963026Y-121691928D01*
X95963026Y-121691928D02*
X95677312Y-121691928D01*
X95677312Y-121691928D02*
X95534454Y-121620500D01*
X95534454Y-121620500D02*
X95463026Y-121477642D01*
X95463026Y-121477642D02*
X95463026Y-120906214D01*
X95463026Y-120906214D02*
X95534454Y-120763357D01*
X95534454Y-120763357D02*
X95677312Y-120691928D01*
X95677312Y-120691928D02*
X95963026Y-120691928D01*
X95963026Y-120691928D02*
X96105883Y-120763357D01*
X96105883Y-120763357D02*
X96177312Y-120906214D01*
X96177312Y-120906214D02*
X96177312Y-121049071D01*
X96177312Y-121049071D02*
X95463026Y-121191928D01*
X96605883Y-120691928D02*
X97177311Y-120691928D01*
X96820168Y-120191928D02*
X96820168Y-121477642D01*
X96820168Y-121477642D02*
X96891597Y-121620500D01*
X96891597Y-121620500D02*
X97034454Y-121691928D01*
X97034454Y-121691928D02*
X97177311Y-121691928D01*
X97677311Y-121549071D02*
X97748740Y-121620500D01*
X97748740Y-121620500D02*
X97677311Y-121691928D01*
X97677311Y-121691928D02*
X97605883Y-121620500D01*
X97605883Y-121620500D02*
X97677311Y-121549071D01*
X97677311Y-121549071D02*
X97677311Y-121691928D01*
X97677311Y-120763357D02*
X97748740Y-120834785D01*
X97748740Y-120834785D02*
X97677311Y-120906214D01*
X97677311Y-120906214D02*
X97605883Y-120834785D01*
X97605883Y-120834785D02*
X97677311Y-120763357D01*
X97677311Y-120763357D02*
X97677311Y-120906214D01*
D10*
D12*
X91561710Y-118684128D02*
X91561710Y-117184128D01*
X91561710Y-117184128D02*
X91918853Y-117184128D01*
X91918853Y-117184128D02*
X92133139Y-117255557D01*
X92133139Y-117255557D02*
X92275996Y-117398414D01*
X92275996Y-117398414D02*
X92347425Y-117541271D01*
X92347425Y-117541271D02*
X92418853Y-117826985D01*
X92418853Y-117826985D02*
X92418853Y-118041271D01*
X92418853Y-118041271D02*
X92347425Y-118326985D01*
X92347425Y-118326985D02*
X92275996Y-118469842D01*
X92275996Y-118469842D02*
X92133139Y-118612700D01*
X92133139Y-118612700D02*
X91918853Y-118684128D01*
X91918853Y-118684128D02*
X91561710Y-118684128D01*
X93633139Y-118612700D02*
X93490282Y-118684128D01*
X93490282Y-118684128D02*
X93204568Y-118684128D01*
X93204568Y-118684128D02*
X93061710Y-118612700D01*
X93061710Y-118612700D02*
X92990282Y-118469842D01*
X92990282Y-118469842D02*
X92990282Y-117898414D01*
X92990282Y-117898414D02*
X93061710Y-117755557D01*
X93061710Y-117755557D02*
X93204568Y-117684128D01*
X93204568Y-117684128D02*
X93490282Y-117684128D01*
X93490282Y-117684128D02*
X93633139Y-117755557D01*
X93633139Y-117755557D02*
X93704568Y-117898414D01*
X93704568Y-117898414D02*
X93704568Y-118041271D01*
X93704568Y-118041271D02*
X92990282Y-118184128D01*
X94275996Y-118612700D02*
X94418853Y-118684128D01*
X94418853Y-118684128D02*
X94704567Y-118684128D01*
X94704567Y-118684128D02*
X94847424Y-118612700D01*
X94847424Y-118612700D02*
X94918853Y-118469842D01*
X94918853Y-118469842D02*
X94918853Y-118398414D01*
X94918853Y-118398414D02*
X94847424Y-118255557D01*
X94847424Y-118255557D02*
X94704567Y-118184128D01*
X94704567Y-118184128D02*
X94490282Y-118184128D01*
X94490282Y-118184128D02*
X94347424Y-118112700D01*
X94347424Y-118112700D02*
X94275996Y-117969842D01*
X94275996Y-117969842D02*
X94275996Y-117898414D01*
X94275996Y-117898414D02*
X94347424Y-117755557D01*
X94347424Y-117755557D02*
X94490282Y-117684128D01*
X94490282Y-117684128D02*
X94704567Y-117684128D01*
X94704567Y-117684128D02*
X94847424Y-117755557D01*
X95561710Y-118684128D02*
X95561710Y-117684128D01*
X95561710Y-117184128D02*
X95490282Y-117255557D01*
X95490282Y-117255557D02*
X95561710Y-117326985D01*
X95561710Y-117326985D02*
X95633139Y-117255557D01*
X95633139Y-117255557D02*
X95561710Y-117184128D01*
X95561710Y-117184128D02*
X95561710Y-117326985D01*
X96918854Y-117684128D02*
X96918854Y-118898414D01*
X96918854Y-118898414D02*
X96847425Y-119041271D01*
X96847425Y-119041271D02*
X96775996Y-119112700D01*
X96775996Y-119112700D02*
X96633139Y-119184128D01*
X96633139Y-119184128D02*
X96418854Y-119184128D01*
X96418854Y-119184128D02*
X96275996Y-119112700D01*
X96918854Y-118612700D02*
X96775996Y-118684128D01*
X96775996Y-118684128D02*
X96490282Y-118684128D01*
X96490282Y-118684128D02*
X96347425Y-118612700D01*
X96347425Y-118612700D02*
X96275996Y-118541271D01*
X96275996Y-118541271D02*
X96204568Y-118398414D01*
X96204568Y-118398414D02*
X96204568Y-117969842D01*
X96204568Y-117969842D02*
X96275996Y-117826985D01*
X96275996Y-117826985D02*
X96347425Y-117755557D01*
X96347425Y-117755557D02*
X96490282Y-117684128D01*
X96490282Y-117684128D02*
X96775996Y-117684128D01*
X96775996Y-117684128D02*
X96918854Y-117755557D01*
X97633139Y-117684128D02*
X97633139Y-118684128D01*
X97633139Y-117826985D02*
X97704568Y-117755557D01*
X97704568Y-117755557D02*
X97847425Y-117684128D01*
X97847425Y-117684128D02*
X98061711Y-117684128D01*
X98061711Y-117684128D02*
X98204568Y-117755557D01*
X98204568Y-117755557D02*
X98275997Y-117898414D01*
X98275997Y-117898414D02*
X98275997Y-118684128D01*
X99561711Y-118612700D02*
X99418854Y-118684128D01*
X99418854Y-118684128D02*
X99133140Y-118684128D01*
X99133140Y-118684128D02*
X98990282Y-118612700D01*
X98990282Y-118612700D02*
X98918854Y-118469842D01*
X98918854Y-118469842D02*
X98918854Y-117898414D01*
X98918854Y-117898414D02*
X98990282Y-117755557D01*
X98990282Y-117755557D02*
X99133140Y-117684128D01*
X99133140Y-117684128D02*
X99418854Y-117684128D01*
X99418854Y-117684128D02*
X99561711Y-117755557D01*
X99561711Y-117755557D02*
X99633140Y-117898414D01*
X99633140Y-117898414D02*
X99633140Y-118041271D01*
X99633140Y-118041271D02*
X98918854Y-118184128D01*
X100275996Y-118684128D02*
X100275996Y-117684128D01*
X100275996Y-117969842D02*
X100347425Y-117826985D01*
X100347425Y-117826985D02*
X100418854Y-117755557D01*
X100418854Y-117755557D02*
X100561711Y-117684128D01*
X100561711Y-117684128D02*
X100704568Y-117684128D01*
X101204567Y-118541271D02*
X101275996Y-118612700D01*
X101275996Y-118612700D02*
X101204567Y-118684128D01*
X101204567Y-118684128D02*
X101133139Y-118612700D01*
X101133139Y-118612700D02*
X101204567Y-118541271D01*
X101204567Y-118541271D02*
X101204567Y-118684128D01*
X101204567Y-117755557D02*
X101275996Y-117826985D01*
X101275996Y-117826985D02*
X101204567Y-117898414D01*
X101204567Y-117898414D02*
X101133139Y-117826985D01*
X101133139Y-117826985D02*
X101204567Y-117755557D01*
X101204567Y-117755557D02*
X101204567Y-117898414D01*
X103061710Y-118684128D02*
X103061710Y-117184128D01*
X103061710Y-117184128D02*
X103561710Y-118255557D01*
X103561710Y-118255557D02*
X104061710Y-117184128D01*
X104061710Y-117184128D02*
X104061710Y-118684128D01*
X104990282Y-118684128D02*
X104847425Y-118612700D01*
X104847425Y-118612700D02*
X104775996Y-118541271D01*
X104775996Y-118541271D02*
X104704568Y-118398414D01*
X104704568Y-118398414D02*
X104704568Y-117969842D01*
X104704568Y-117969842D02*
X104775996Y-117826985D01*
X104775996Y-117826985D02*
X104847425Y-117755557D01*
X104847425Y-117755557D02*
X104990282Y-117684128D01*
X104990282Y-117684128D02*
X105204568Y-117684128D01*
X105204568Y-117684128D02*
X105347425Y-117755557D01*
X105347425Y-117755557D02*
X105418854Y-117826985D01*
X105418854Y-117826985D02*
X105490282Y-117969842D01*
X105490282Y-117969842D02*
X105490282Y-118398414D01*
X105490282Y-118398414D02*
X105418854Y-118541271D01*
X105418854Y-118541271D02*
X105347425Y-118612700D01*
X105347425Y-118612700D02*
X105204568Y-118684128D01*
X105204568Y-118684128D02*
X104990282Y-118684128D01*
X106133139Y-117684128D02*
X106133139Y-118684128D01*
X106133139Y-117826985D02*
X106204568Y-117755557D01*
X106204568Y-117755557D02*
X106347425Y-117684128D01*
X106347425Y-117684128D02*
X106561711Y-117684128D01*
X106561711Y-117684128D02*
X106704568Y-117755557D01*
X106704568Y-117755557D02*
X106775997Y-117898414D01*
X106775997Y-117898414D02*
X106775997Y-118684128D01*
X107490282Y-117684128D02*
X107490282Y-118684128D01*
X107490282Y-117826985D02*
X107561711Y-117755557D01*
X107561711Y-117755557D02*
X107704568Y-117684128D01*
X107704568Y-117684128D02*
X107918854Y-117684128D01*
X107918854Y-117684128D02*
X108061711Y-117755557D01*
X108061711Y-117755557D02*
X108133140Y-117898414D01*
X108133140Y-117898414D02*
X108133140Y-118684128D01*
X108847425Y-118684128D02*
X108847425Y-117684128D01*
X108847425Y-117184128D02*
X108775997Y-117255557D01*
X108775997Y-117255557D02*
X108847425Y-117326985D01*
X108847425Y-117326985D02*
X108918854Y-117255557D01*
X108918854Y-117255557D02*
X108847425Y-117184128D01*
X108847425Y-117184128D02*
X108847425Y-117326985D01*
X110133140Y-118612700D02*
X109990283Y-118684128D01*
X109990283Y-118684128D02*
X109704569Y-118684128D01*
X109704569Y-118684128D02*
X109561711Y-118612700D01*
X109561711Y-118612700D02*
X109490283Y-118469842D01*
X109490283Y-118469842D02*
X109490283Y-117898414D01*
X109490283Y-117898414D02*
X109561711Y-117755557D01*
X109561711Y-117755557D02*
X109704569Y-117684128D01*
X109704569Y-117684128D02*
X109990283Y-117684128D01*
X109990283Y-117684128D02*
X110133140Y-117755557D01*
X110133140Y-117755557D02*
X110204569Y-117898414D01*
X110204569Y-117898414D02*
X110204569Y-118041271D01*
X110204569Y-118041271D02*
X109490283Y-118184128D01*
X112418854Y-117184128D02*
X112418854Y-118255557D01*
X112418854Y-118255557D02*
X112347425Y-118469842D01*
X112347425Y-118469842D02*
X112204568Y-118612700D01*
X112204568Y-118612700D02*
X111990282Y-118684128D01*
X111990282Y-118684128D02*
X111847425Y-118684128D01*
X113775997Y-117684128D02*
X113775997Y-118684128D01*
X113133139Y-117684128D02*
X113133139Y-118469842D01*
X113133139Y-118469842D02*
X113204568Y-118612700D01*
X113204568Y-118612700D02*
X113347425Y-118684128D01*
X113347425Y-118684128D02*
X113561711Y-118684128D01*
X113561711Y-118684128D02*
X113704568Y-118612700D01*
X113704568Y-118612700D02*
X113775997Y-118541271D01*
X115133140Y-118684128D02*
X115133140Y-117184128D01*
X115133140Y-118612700D02*
X114990282Y-118684128D01*
X114990282Y-118684128D02*
X114704568Y-118684128D01*
X114704568Y-118684128D02*
X114561711Y-118612700D01*
X114561711Y-118612700D02*
X114490282Y-118541271D01*
X114490282Y-118541271D02*
X114418854Y-118398414D01*
X114418854Y-118398414D02*
X114418854Y-117969842D01*
X114418854Y-117969842D02*
X114490282Y-117826985D01*
X114490282Y-117826985D02*
X114561711Y-117755557D01*
X114561711Y-117755557D02*
X114704568Y-117684128D01*
X114704568Y-117684128D02*
X114990282Y-117684128D01*
X114990282Y-117684128D02*
X115133140Y-117755557D01*
X115704568Y-117684128D02*
X116061711Y-118684128D01*
X116418854Y-117684128D02*
X116061711Y-118684128D01*
X116061711Y-118684128D02*
X115918854Y-119041271D01*
X115918854Y-119041271D02*
X115847425Y-119112700D01*
X115847425Y-119112700D02*
X115704568Y-119184128D01*
D10*
D11*
X110007200Y-129505800D02*
X110007200Y-132505800D01*
D10*
D11*
X174007200Y-129505800D02*
X174007200Y-136005800D01*
M02*
